<?xml version="1.0" encoding="utf-8"?>
<!DOCTYPE svg PUBLIC "-//W3C//DTD SVG 1.1//EN" "http://www.w3.org/Graphics/SVG/1.1/DTD/svg11.dtd">
<svg version="1.1" xmlns="http://www.w3.org/2000/svg" xmlns:xlink="http://www.w3.org/1999/xlink" x="0px" y="0px" viewBox="0 0 1000 1000" enable-background="new 0 0 1000 1000" xml:space="preserve">
<metadata> Svg Vector Icons : http://www.onlinewebfonts.com/icon </metadata>
<g><path d="M348.4,313.3c-9.1,3.4-18.1,7.1-26.9,11.2l14.6,31.2c7.9-3.6,15.9-7,24.1-10.1L348.4,313.3L348.4,313.3z"/><path d="M313.5,328.2c-8.8,4.2-17.4,8.7-25.8,13.5l17.3,29.9c7.6-4.3,15.3-8.3,23.1-12.1L313.5,328.2L313.5,328.2z"/><path d="M280,346.1c-8.4,5-16.6,10.2-24.6,15.7l19.8,28.4c7.2-4.9,14.5-9.6,22-14.1L280,346.1L280,346.1z"/><path d="M248.2,366.8c-7.9,5.7-15.6,11.6-23.1,17.8l22.3,26.6c6.7-5.5,13.6-10.9,20.7-16L248.2,366.8L248.2,366.8z"/><path d="M384.5,301.5c-9.4,2.6-18.7,5.5-27.8,8.8l11.8,32.3c8.2-2.9,16.5-5.5,24.9-7.9L384.5,301.5z"/><path d="M496.9,285.8c-9.8,0.1-19.5,0.5-29.1,1.2l3,34c8.6-0.7,17.3-1,26.1-1.1L496.9,285.8L496.9,285.8z"/><path d="M459,287.7c-9.7,0.9-19.4,2.2-28.9,3.8l5.9,33.7c8.6-1.4,17.2-2.6,25.9-3.4L459,287.7z"/><path d="M534.9,287.1c-9.6-0.7-19.3-1.2-29.1-1.3v34c8.8,0.1,17.5,0.4,26.2,1.1L534.9,287.1L534.9,287.1z"/><path d="M421.5,293c-9.6,1.8-19.1,3.9-28.5,6.3l8.9,33.1c8.4-2.2,16.9-4.1,25.5-5.7L421.5,293L421.5,293z"/><path d="M90.9,576c-3.2,9.1-6.2,18.4-8.8,27.8l34.3,9.2c2.3-8.4,4.9-16.7,7.8-24.9L90.9,576L90.9,576z"/><path d="M218.4,390.3c-7.4,6.3-14.5,12.9-21.5,19.7l24.6,24.6c6.2-6.1,12.6-12,19.2-17.7L218.4,390.3L218.4,390.3z"/><path d="M103.7,681.5c0.8-8.7,1.9-17.3,3.3-25.8l-35.1-6.2c-1.6,9.5-2.9,19.2-3.8,28.9L103.7,681.5z"/><path d="M122.3,506.9c-4.8,8.4-9.3,17-13.5,25.8l31.9,14.9c3.8-7.9,7.8-15.6,12-23.1L122.3,506.9L122.3,506.9z"/><path d="M105.1,540.8c-4,8.8-7.7,17.8-11.2,26.9l33.2,12.1c3.1-8.2,6.4-16.2,9.9-24.1L105.1,540.8L105.1,540.8z"/><path d="M142.4,474.7c-5.5,8-10.7,16.2-15.7,24.6l30.4,17.5c4.4-7.5,9.1-14.8,14-22L142.4,474.7L142.4,474.7z"/><path d="M190.6,416.2c-6.8,6.9-13.4,14.1-19.7,21.5l26.7,22.4c5.7-6.6,11.5-13,17.6-19.3L190.6,416.2L190.6,416.2z"/><path d="M165.3,444.4c-6.2,7.5-12.1,15.2-17.8,23.1l28.7,20.1c5.1-7.1,10.3-14,15.8-20.7L165.3,444.4L165.3,444.4z"/><path d="M79.8,612.3c-2.4,9.4-4.5,18.9-6.3,28.5l35.1,6.2c1.6-8.6,3.5-17.1,5.6-25.5L79.8,612.3L79.8,612.3z"/><path d="M893.3,533.1c-4.2-8.8-8.7-17.4-13.5-25.8l-29,16.7c4.3,7.6,8.3,15.3,12.1,23.2L893.3,533.1L893.3,533.1z"/><path d="M908.1,567.9c-3.4-9.1-7.1-18.1-11.1-26.9l-30.4,14.2c3.6,7.9,6.9,16,10,24.2L908.1,567.9L908.1,567.9z"/><path d="M919.9,604c-2.6-9.4-5.5-18.6-8.8-27.7l-31.6,11.5c2.9,8.2,5.5,16.5,7.8,25L919.9,604L919.9,604z"/><path d="M875.4,499.6c-4.9-8.4-10.2-16.5-15.6-24.5l-27.4,19.2c4.9,7.2,9.6,14.6,14.1,22.1L875.4,499.6L875.4,499.6z"/><path d="M67.3,687.2c-0.5,6-0.9,12.1-1.1,18.2c-0.1,3.8-0.4,15.2,16.7,16.1c19.1-0.1,19-12.2,19.2-16c0.2-5.1,0.5-10.1,0.9-15.2L67.3,687.2L67.3,687.2z"/><path d="M928.5,640.9c-1.8-9.6-3.9-19-6.3-28.4l-32.5,8.7c2.1,8.4,4,16.9,5.6,25.5L928.5,640.9L928.5,640.9z"/><path d="M934.6,687.2l-33.8,3c0.4,5.1,0.7,10.3,0.9,15.5c0.1,3.8,0.4,15.6,17.5,15.8c16.9-0.3,16.6-11.9,16.5-15.9C935.5,699.4,935.1,693.3,934.6,687.2L934.6,687.2z"/><path d="M854.7,467.9c-5.7-7.9-11.5-15.6-17.7-23.1l-25.6,21.5c5.5,6.7,10.8,13.7,15.9,20.8L854.7,467.9L854.7,467.9z"/><path d="M933.8,678.4c-1-9.7-2.2-19.3-3.8-28.8l-33.3,5.9c1.4,8.6,2.5,17.2,3.3,25.9L933.8,678.4L933.8,678.4z"/><path d="M831.3,438c-6.3-7.4-12.9-14.5-19.6-21.4L788,440.3c6.1,6.2,12,12.7,17.7,19.3L831.3,438L831.3,438z"/><path d="M681.1,324.8c-8.8-4-17.8-7.8-26.9-11.2l-11.5,31.7c8.2,3.1,16.3,6.4,24.2,10L681.1,324.8L681.1,324.8z"/><path d="M714.9,342c-8.4-4.8-17-9.3-25.8-13.5L674.9,359c7.9,3.8,15.6,7.8,23.2,12.1L714.9,342L714.9,342z"/><path d="M645.9,310.5c-9.1-3.2-18.4-6.2-27.8-8.8l-8.7,32.6c8.4,2.3,16.8,5,25,7.9L645.9,310.5L645.9,310.5z"/><path d="M609.6,299.5c-9.4-2.4-18.8-4.5-28.4-6.3l-5.9,33.4c8.6,1.6,17.1,3.5,25.6,5.6L609.6,299.5L609.6,299.5z"/><path d="M747,362.1c-8-5.5-16.1-10.7-24.5-15.7l-16.8,29.1c7.5,4.5,14.9,9.2,22.1,14.1L747,362.1L747,362.1z"/><path d="M805.4,410.3c-6.9-6.8-14.1-13.4-21.4-19.7l-21.5,25.7c6.6,5.7,13.1,11.6,19.3,17.7L805.4,410.3L805.4,410.3z"/><path d="M572.5,291.6c-9.5-1.6-19.1-2.9-28.9-3.8l-3,33.8c8.7,0.8,17.4,2,25.9,3.4L572.5,291.6L572.5,291.6z"/><path d="M777.3,385c-7.5-6.2-15.2-12.1-23-17.8L735,394.7c7.1,5.1,14,10.4,20.7,16L777.3,385L777.3,385z"/><path d="M988,766.4c1.3-14.8,2-29.7,2-44.8c0-270.9-219.4-490.5-490-490.5S10,450.7,10,721.6c0,15.1,0.7,30,2,44.7c0.2,2.3,6.2,4,8.3,0c-1.4-15.1-2.2-30.5-2.2-46c0-267.2,216.3-483.8,483.2-483.8c266.9,0,483.2,216.6,483.2,483.8c0,15.5-0.7,30.9-2.2,46.1C982.5,769.8,987.5,769.7,988,766.4L988,766.4z"/></g>
</svg>