<?xml version="1.0" standalone="no"?>
<!DOCTYPE svg PUBLIC "-//W3C//DTD SVG 20010904//EN"
 "http://www.w3.org/TR/2001/REC-SVG-20010904/DTD/svg10.dtd">
<svg version="1.0" xmlns="http://www.w3.org/2000/svg"
 width="250.000000pt" height="175.000000pt" viewBox="0 0 250.000000 175.000000"
 preserveAspectRatio="xMidYMid meet">

<g transform="translate(0.000000,175.000000) scale(0.100000,-0.100000)"
fill="#000000" stroke="none">
<path d="M806 1565 c-44 -23 -55 -45 -56 -102 0 -29 -3 -53 -7 -53 -5 0 -17
-7 -28 -16 -19 -14 -20 -30 -25 -477 l-5 -462 -165 -2 c-91 -2 -171 1 -178 5
-7 5 -10 16 -6 25 5 15 25 17 149 17 121 0 144 2 149 16 11 29 6 111 -7 122
-8 7 -71 13 -153 14 -116 3 -139 6 -139 18 0 12 24 16 140 20 77 3 146 9 153
13 7 5 12 31 12 67 0 36 -5 62 -12 67 -7 4 -76 10 -153 13 -116 4 -140 8 -140
20 0 12 23 15 139 18 82 1 145 7 153 14 16 13 17 110 1 126 -8 8 -56 12 -149
12 -116 0 -138 2 -143 16 -3 9 -6 76 -6 149 0 106 -3 134 -14 138 -31 12 -37
-19 -34 -184 l3 -164 145 -5 c128 -4 145 -7 148 -23 3 -15 -9 -17 -136 -17
-108 0 -142 -3 -151 -14 -7 -9 -11 -40 -9 -78 l3 -63 148 -3 c138 -2 147 -4
147 -22 0 -18 -9 -20 -147 -22 l-148 -3 -3 -63 c-2 -38 2 -69 9 -78 9 -11 43
-14 151 -14 127 0 139 -2 136 -17 -3 -16 -20 -19 -148 -23 l-145 -5 0 -70 0
-70 193 -3 192 -2 40 -40 c37 -37 40 -44 40 -94 0 -44 4 -58 26 -80 38 -37
100 -37 137 2 23 24 27 36 27 90 0 48 3 62 15 62 11 0 15 -12 15 -45 0 -48 22
-101 49 -122 9 -7 35 -13 58 -13 34 0 46 5 67 31 21 24 26 41 26 84 0 54 15
79 31 54 5 -8 9 -38 9 -67 0 -44 4 -57 26 -77 40 -37 95 -37 133 0 18 18 25
38 30 86 8 82 26 88 34 11 8 -75 13 -87 45 -108 41 -27 90 -20 123 18 25 27
29 40 29 90 0 45 3 58 15 58 11 0 15 -12 15 -45 0 -55 21 -110 48 -124 12 -6
38 -11 60 -11 57 0 86 34 92 113 6 78 30 92 30 17 0 -83 36 -129 102 -130 60
0 88 32 95 108 5 52 10 66 29 79 l24 15 0 508 0 508 -25 16 c-20 13 -25 25
-25 59 0 57 -18 89 -63 111 -33 16 -42 16 -69 5 -40 -17 -68 -64 -68 -116 0
-32 -4 -43 -15 -43 -11 0 -15 12 -15 49 0 55 -22 91 -69 111 -62 25 -131 -39
-131 -124 0 -25 -4 -36 -15 -36 -11 0 -15 12 -15 48 0 54 -17 85 -61 108 -25
12 -37 13 -65 4 -44 -15 -61 -41 -70 -107 -8 -67 -34 -74 -34 -10 0 54 -17 86
-57 110 -29 16 -37 17 -68 6 -49 -18 -57 -30 -64 -97 -5 -43 -10 -58 -23 -60
-15 -3 -18 4 -18 45 0 55 -17 86 -61 108 -61 32 -129 -20 -137 -105 -3 -33 -9
-50 -18 -50 -10 0 -14 14 -14 48 0 54 -17 85 -60 107 -36 18 -38 18 -74 0z
m62 -57 c7 -7 12 -31 12 -55 l0 -43 -40 0 c-39 0 -40 1 -40 33 0 57 39 94 68
65z m230 0 c7 -7 12 -31 12 -55 l0 -43 -40 0 c-39 0 -40 1 -40 35 0 61 36 95
68 63z m236 -4 c3 -9 6 -34 6 -55 l0 -40 -37 3 c-37 3 -38 4 -36 42 2 21 8 45
14 52 15 19 45 18 53 -2z m224 4 c7 -7 12 -32 12 -56 l0 -43 -37 3 c-33 3 -38
7 -41 31 -4 31 21 77 41 77 7 0 18 -5 25 -12z m230 0 c7 -7 12 -31 12 -55 l0
-43 -40 0 c-39 0 -40 1 -40 36 0 63 35 95 68 62z m232 -7 c5 -11 10 -36 10
-55 0 -35 -1 -36 -40 -36 -39 0 -40 1 -40 36 0 45 15 74 40 74 11 0 24 -9 30
-19z m65 -631 l0 -475 -665 0 -665 0 -3 478 -2 477 667 -2 668 -3 0 -475z
m-1210 -589 c0 -41 -4 -56 -18 -65 -26 -16 -57 24 -57 73 0 46 6 53 45 49 29
-3 30 -4 30 -57z m235 4 c0 -45 -4 -56 -21 -65 -32 -18 -59 12 -59 65 0 50 4
55 47 55 l33 0 0 -55z m228 16 c6 -64 -15 -99 -52 -85 -17 7 -30 74 -21 104 5
17 13 20 38 18 28 -3 32 -7 35 -37z m230 -18 c3 -45 0 -53 -19 -63 -28 -16
-47 3 -56 53 -8 53 1 69 39 65 32 -3 33 -4 36 -55z m230 0 c3 -44 0 -53 -18
-63 -33 -18 -60 12 -60 65 0 50 5 57 45 53 29 -3 30 -5 33 -55z m232 8 c0 -32
-6 -55 -16 -65 -18 -19 -20 -19 -45 -6 -15 8 -19 21 -19 59 0 57 3 61 47 61
33 0 33 0 33 -49z"/>
<path d="M1251 976 c-133 -133 -152 -157 -141 -170 7 -9 23 -16 36 -16 23 0
24 -2 24 -84 0 -59 4 -87 14 -95 9 -8 82 -11 242 -9 l229 3 3 93 3 92 28 0
c16 0 34 6 41 14 9 12 4 23 -29 58 -37 41 -40 49 -43 109 l-3 64 -33 3 c-24 2
-38 -2 -47 -15 -12 -16 -18 -13 -78 45 -36 34 -71 62 -78 62 -7 0 -83 -70
-168 -154z"/>
</g>
</svg>
