<?xml version="1.0" encoding="iso-8859-1"?>
<!-- Generator: Adobe Illustrator 19.0.0, SVG Export Plug-In . SVG Version: 6.00 Build 0)  -->
<svg version="1.1" id="Layer_1" xmlns="http://www.w3.org/2000/svg" xmlns:xlink="http://www.w3.org/1999/xlink" x="0px" y="0px"
	 viewBox="0 0 502 502" style="enable-background:new 0 0 502 502;" xml:space="preserve">
<g>
	<g>
		<g>
			<path d="M398.721,0H103.279c-22.265,0-40.38,18.114-40.38,40.38v421.24c0,22.266,18.114,40.38,40.38,40.38h295.444
				c22.265,0,40.38-18.114,40.379-40.38V40.38C439.102,18.114,420.987,0,398.721,0z M419.102,461.62
				c0,11.237-9.142,20.38-20.38,20.38H103.279c-11.237,0-20.38-9.143-20.38-20.38V40.38c0-11.237,9.142-20.38,20.38-20.38h295.443
				c11.237,0,20.38,9.143,20.38,20.38V461.62z"/>
			<path d="M391.103,38H110.899c-5.523,0-10,4.477-10,10v356.565c0,5.523,4.477,10,10,10h280.204c5.523,0,10-4.477,10-10V48
				C401.103,42.477,396.626,38,391.103,38z M381.103,394.565H120.899V58h260.204V394.565z"/>
			<path d="M147,257c5.523,0,10-4.477,10-10V86c0-5.523-4.477-10-10-10s-10,4.477-10,10v161C137,252.523,141.477,257,147,257z"/>
			<path d="M147,312c5.523,0,10-4.477,10-10v-19c0-5.523-4.477-10-10-10s-10,4.477-10,10v19C137,307.523,141.477,312,147,312z"/>
			<path d="M251,421c-14.888,0-27,12.112-27,27s12.112,27,27,27s27-12.112,27-27S265.888,421,251,421z M251,455c-3.86,0-7-3.14-7-7
				s3.14-7,7-7s7,3.14,7,7S254.86,455,251,455z"/>
		</g>
	</g>
</g>
<g>
</g>
<g>
</g>
<g>
</g>
<g>
</g>
<g>
</g>
<g>
</g>
<g>
</g>
<g>
</g>
<g>
</g>
<g>
</g>
<g>
</g>
<g>
</g>
<g>
</g>
<g>
</g>
<g>
</g>
</svg>
